<?xml version="1.0" encoding="UTF-8"?>
<svg id="_图层_1" data-name="图层 1" xmlns="http://www.w3.org/2000/svg" viewBox="0 0 480 192">
  <defs>
    <style>
      .cls-1 {
        stroke-width: 0px;
      }
    </style>
  </defs>
  <path class="cls-1" d="m268.99,77.72c-1.54.41-3.08.82-4.6,1.23-.62-.25-1.32-.53-2.29-.92.17.48.26.75.41,1.17-.84.08-1.66.16-2.8.28-.3.38-.97.89-1.75.61-.82.42-1.47.99-2.17,1.05-1.24.11-2.32.42-3.43,1.01-.59.32-1.53-.03-2.31-.23-.36.09,0,1.61-1.2.53-.01-.01-.2.22-.33.27-.6.26-1.21.5-1.87.54-.42.4-.79.93-1.29,1.16-1.88.9-3.8,1.7-5.71,2.54-1.09.47-2,1.26-3.04,1.79-1.36.7-2.77,1.29-4.17,1.88-.2.08-.52-.13-.82-.21-.77,1.15-4.86,3.03-5.37,2.75-.63.34-1.04.62-1.49.8-.84.34-1.72.59-2.56.94-1.22.5-2.42,1.05-3.73,1.63,0,0-.1-.2-.2-.41-.32.34-.64.68-.96,1.02-.88-1.1-1.1-1.13-1.89-.36-.44-.19-1.12-.59-1.19-.51-.44.57-.77,1.23-1.11,1.88-.59,1.14.28,2.22.17,3.33-.06.58-.46,1.14-.45,1.71,0,.59.32,1.19.5,1.78.04.13.11.27.1.4-.03.46-.09.92-.14,1.37.11.03.23.06.34.09-.18.11-.35.22-.6.36.37.22.67.4.97.58-.34.6-.64,1.13-.94,1.65.11-.01.22-.02.33-.03.32,1.28.65,2.57,1.01,4-.39-.11-.59-.16-.77-.21,0,1.68-.31,3.42.09,4.98.4,1.54.14,3.06.41,4.57.25,1.39.25,2.83.35,4.25.02.3-.12.66,0,.9,1.26,2.5-.8,4.46-.86,6.6-.8.07-1.4.12-2.09.17-.33-.53-.76-1.23-1.32-2.14-.32.6-.46,1.14-.8,1.45-.28.25-.8.21-1.21.3-.29-.76-.58-1.54-.9-2.38-.18.02-.37.07-.56.06-.37-.03-.75-.11-1.12-.16.12-.33.25-.66.37-1,.06-.18.21-.43.15-.53-.61-.97.14-1.89.07-2.82-.09-1.09-.39-2.15-.57-3.23-.12-.72-.2-1.46-.26-2.19-.09-1.01-.12-2.02-.21-3.02-.07-.75-.43-1.55-.25-2.22.23-.86.4-1.58-.12-2.37-.06-.08.38-.5.47-.61-.13-.67-.33-1.21-.31-1.75.06-1.62.19-3.23.33-4.85.03-.34.12-.78.35-.98.68-.61.27-1.18.05-1.77-.32-.86.32-1.97,1.17-2.04-.34-.41-.74-.81-1.02-1.27-.13-.22-.02-.58,0-.88.04-.57.1-1.14.01-1.73.39-.36,1-.57.05-1.29-.37-.28-.31-1.14-.46-1.81h1.13c-.5-1.54-.99-3.03-1.58-4.84-1.17,3.16-2.8,5.8-3.9,8.63.04-.02.19-.11.35-.19-.34,1.31-.79,1.81-2.77,2.96.14.25.28.5.27.49-.33.75-.57,1.34-.83,1.91-.05.1-.16.23-.25.24-1.65.13-.66,1.46-1.02,2.06-.51.31-.97.59-1.48.89.22.28.41.5.41.5-.44.72-.8,1.29-1.19,1.92.02.01-.15-.09-.39-.24-.12.56.21,1.4-.85,1.38-.11,0-.23.87-.35,1.37-.22-.06-.44-.11-.32-.08-.93.88-1.69,1.65-2.5,2.35-.64.55-1.29,1.13-2.03,1.5-2.51,1.24-4.7,3.06-7.56,3.68-2.28.49-4.46,1.4-6.7,2.08-.56.17-1.19.25-1.77.19-.44-.04-1.22-.36-1.22-.56,0-.59.18-1.27.52-1.75.53-.72,1.2-1.36,1.91-1.9.75-.58,1.63-.99,2.43-1.51.32-.21.56-.56.88-.78.18-.12.46-.1.53-.11,1.4-1.26,2.75-2.49,4.22-3.81.05.02.38.13.52.18.92-1.05,1.74-2.01,2.58-2.95.52-.58,1.13-1.08,1.63-1.68.72-.87,1.36-1.81,2.05-2.71.26-.34.5-.73.84-.95.49-.31.97-.51.65-.96.54-.88,1.09-1.75,1.62-2.63.64-1.06,1.26-2.13,1.97-3.33.03,0,.3.09.56.16q.39-.83,1.34-.34c-.23-.75-.65-1.45-.58-2.1.07-.63.64-1.21,1.03-1.89.22.38.4.69.57,1.01-.09-1.77.84-3.1,1.54-4.65,0-.21-.03-.62-.06-1.17.62.26.98.41,1.64.69-.35-.7-.56-1.1-.76-1.51.09.03.18.07.27.1.28-.76.56-1.51.84-2.27-.1-.09-.19-.18-.29-.27.47-.03.94-.05,1.49-.08.04-.17.1-.46.19-.9-.25.06-.37.1-.5.11-.25.02-.49.03-.74.04,0-.25-.08-.52-.02-.76.23-1,.5-1.99.76-2.98-.13,0-.27.01-.4.02-.64-.28-1.29-.57-1.63-.72-.48.45-.9,1.05-1.11.99-.75-.24-1.96,1.24-2.28-.85-.2.58-.31.91-.47,1.37-.33-.26-.57-.46-.83-.66-.31.37-.61.72-.96,1.13-.65-.67-1.26-1.28-2.24-.48-.2.17-.9-.13-1.29-.35-.47-.26-.86-.67-1.38-1.09-.15-.32-.38-.78-.64-1.32.65-.02.43-1.62,1.37-1.1,1.34-.55,2.5-1.1,3.71-1.48,1.31-.42,2.67-.69,4.08-1.05,0,0-.06-.16-.11-.33,1.56.02,2.9-.51,3.16-1.07.41,0,.84.13,1.01-.02.64-.58,1.87-1.12,2.63-1.57.77-.45,1.85-.7,2.06-1.86.04-.2.47-.33.71-.49.15-.4.34-.82.45-1.26.08-.3.06-.63.04-.94-.04-.98-.82-2.03.34-2.9.11-.08-.03-.57-.15-.84-.18-.4-.43-.78-.64-1.15.42-.02.78-.04,1.02-.05-.24-.63-.54-1.09-.56-1.56-.07-1.55-.02-3.11-.06-4.66,0-.28-.2-.55-.18-.5.17-.65.48-1.22.34-1.36-1.12-1.11.02-2.51-.73-3.63.14-.06.28-.12.42-.18.23.35.46.69.74,1.12.1-.14.35-.4.31-.44-.4-.51-.17-1.62-1.43-1.32.11-.67.2-1.21.3-1.76-.04,0-.23-.04-.41-.07.46-1.87-.16-3.94,1.17-5.73-1.04-.22-1.45-.8-.92-1.92-.36.03-.63.05-.9.07.07-.1.14-.2.21-.3-.56-.5-1.13-.99-1.71-1.51.73-1.9,4.24-2.63,5.71-1.1-.2.08-.39.16-.69.29,2.28.82,2.76,3.11,4.25,4.61-.31.07-.54.13-.45.11.31,1.29.98,2.56.78,3.66-.22,1.18,1.35,2.64-.68,3.53.35.11.51.16.48.15-.04.6-.22,1.18-.08,1.67.27,1.01.25,2.32-.26,3.36.41.48,1.69.8.37,1.71-.16.11-.09.99.05,1.05.69.27.4.58.3,1.08-.18.89-.2,1.82-.16,2.73.01.23.5.44.85.73-.12.29-.27.67-.45,1.03-.16.33-.36.65-.53.94.65.66,1.14.23,1.64-.04,1.46-.79,1.89-.73,3.18.72v-1.71c.07-.04.15-.08.22-.12.17.3.55.76.47.88-.44.61.99,1.87-.86,1.93.33.38.55.64.71.83-.29.44-.52.84-.8,1.2-.49.65-.88,1.56-1.54,1.84-1.21.51-.34.71,0,1.06-.57.03-1.14.06-1.7.08,0,.09,0,.18-.01.27.27.02.54.04.81.06-.12-.08-.23-.17-.35-.25-.39.61-.78,1.23-1.22,1.91.91.57.76,1.3.21,1.96.58.23,1.35.29,1.6.69.53.85,2.04.37,2.11,1.68,1.57-.64,2.09,1.4,3.45,1.39.28,0,.54.53.84.78.46.38.95.72,1.42,1.1.85.7,1.76,1.35,2.5,2.15.24.26.02.92.11,1.38.04.22.3.39.52.65-.13.04-.37.12-.64.21.04.34.07.68.14,1.27-1.04-.23-1.94-.42-2.8-.61-.38.49-.9,1.15-1.47,1.87-.86-.96-1.35-.28-1.84.31-.22.26-.37.66-.65.79-1.04.45-.63,1.46-1.11,2.11.1.05.19.1.29.15.17-.24.3-.51.51-.71.58-.56,1.12-1.1,2.07-1.15.73-.04,1.44-.5,2.21-.8q.71.83,1.66-.34c.37-.17.73-.37,1.11-.51.95-.36,1.91-.69,2.86-1.03.03,0,.09.06.1.05,1.08-1.15,3.15-.88,3.83-2.62.49.45,2.27.25,3.18-.48.21-.17.11-.71.13-.82.49.06,1.08.25,1.6.14.32-.07.53-.6.8-.92-.08-.07-.16-.14-.24-.2-.3.16-.59.31-.84.44-.43-.51-.82-.98-1.3-1.55-.09.38-.14.58-.22.9-.18-.2-.39-.37-.36-.41.3-.53.64-1.04,1.08-1.74-.04-.28-1.18-1.11.5-1.3.23-.03.35-.98.55-1.5.08-.21.24-.4.37-.61.22.38.42.74.7,1.23.07-.8.12-1.41.18-2.02l.18.25c.92-.53,1.84-1.05,3.04-1.74-.78-.21-1.2-.24-1.51-.44-.27-.17-.42-.54-.71-.93-.18.24-.37.48-.61.78-.27-.17-.55-.35-.83-.52-.1.05-.2.11-.3.16.18.38.36.77.63,1.33-.41-.13-.74-.23-1.07-.34.01-.05.02-.11.03-.16-.51-.23-1.13-.35-1.52-.72-1.49-1.4-3-2.81-4.32-4.37-.67-.8-.95-1.93-1.41-2.91-.15-.33-.29-.67-.53-1.23.55-.16,1.13-.52,1.62-.42.83.16,1.59.68,2.41.93.3.09.7-.17,1.13-.29.26.29.56.63.9,1.02.19-.37.34-.66.47-.91.5.27.95.52,1.67.91-.53-1.02-.55-1.7.38-2.15.12-.06-.02-.73.08-.76.43-.13.9-.14,1.41-.19,0-.06.03-.29.07-.65.98,0,1.97-.02,2.95.01.31.01.84.12.87.27.23,1.15,1.19,2.3.05,3.47,1.26.28,1.26.34-.08,2.32.3.15.58.29,1.05.52-.61.32-1.05.56-1.5.8-.16.09-.44.17-.46.29-.12.76-.7,1.17-1.09,1.74-.26.37,0,1.11.02,1.68.25-.04.58,0,.73-.14.3-.29.51-.68.89-1.21-.02-.14-.08-.59-.12-.96.48-.03.89-.05,1.36-.08-.14-.23-.27-.44-.6-.97.65.26.98.39,1.4.56.25-.7.51-1.47.81-2.32.22.19.38.33.75.65-.75-1.34-.03-1.34.84-1.15-.61-1.03-.38-1.32,1.55-2.18-.07-.3-.14-.61-.22-.91.35-.05.7-.1,1.01-.14-.15-.21-.35-.47-.43-.58.75-.7,1.47-1.25,2.03-1.93.69-.84,1.26-1.78,1.88-2.68.51-.74.27-1.48-.54-1.94-.51-.29-.97-.67-1.43-1.03-1-.79-1.93-1.04-3.02-.05-.28.25-1.16.12-1.57-.14-.36-.24-.76-1.07-.61-1.33.37-.63.96-1.25,1.61-1.58,1.14-.58,2.37-.97,3.6-1.36.36-.11.81.09,1.22.11.23.01.49,0,.68-.1.43-.23,2.58-.09,2.85.27.19.26.27.61.39.88.19-.13.44-.31.82-.57-.18,1.15.62,1.82,1.64,1.69.51.92,1.02,1.81,1.54,2.76-.09.16-.26.45-.31.55.65.95,1.2,1.76,1.83,2.67-.34.21-.75.48-1.22.77,1.33.88.53,1.42-.31,1.82.08.47,1.56.76.04,1.19-.22.06-.18.78-.43.97-.77.57-1.62,1.03-2.51,1.58.04.05.21.24.34.45.47.77.06,1.31-.63,1.42-.88.14-1.02.53-.93,1.32.11,1.05-.55,1.7-1.12,1.58-.79.81-1.46,1.49-2.08,2.12-.29-.16-.58-.31-.87-.47-.07.09-.14.18-.21.27.29.1.59.2.88.3-.13.09-.26.18-.39.26-.14.42-.27.85-.37,1.13-.81.34-1.68.7-2.55,1.07,0,.11,0,.23.01.34.92.37,1.85.73,2.77,1.1.44-.87.75-1.82,1.94-.89.08.06.72-.53,1.05-.86.18-.18.27-.45.35-.6.32.24.59.43.98.72.07-.45.03-.77.17-.96.08-.11.46-.09.66-.02.25.08.61.45.68.4.85-.69,2.32-.31,2.82-1.61.06-.16.29-.25.37-.31.49.31.94.59,1.37.87.33-.54.57-.93.76-1.24.22.34.46.92.59.89.61-.11,1.18-.39,1.77-.6-.01-.11-.03-.21-.04-.32.38.16.77.33,1.22.52.18-.27.35-.52.52-.77.95.45,1.61.2,1.85-.75.39.18.81.54,1.07.45.32-.11.5-.6.83-1.05.32.16.69.34,1.14.56.16-.28.34-.61.61-1.08.12.36.2.61.26.77.97-.18,1.93-.37,3.18-.6.35-.17.98-.51,1.65-.74.16-.05.44.39.67.39.78,0,1.56-.11,2.35-.12,1.35-.02,2.7,0,4.13,0,0,0,.11-.38.16-.37.8.12,1.6.28,2.39.46.3.07.59.22.89.28.68.14,1.47-.1,1.82.93.09.26,1.13.92,1.73-.26.84,1.71,4.14,1.15,3.2,4.25-.29-.13-.59-.26-.59-.26-.99.5-1.81.91-2.63,1.32.02.09.04.18.06.27.24.06.49.13.73.19.02.81-.2,1.31-1.17,1.39-.65.06-1.17.59-1.91.78-1.72.42-3.29-.48-4.92-.11-.49.11-1,.15-1.58.23.05-.32.12-.76.22-1.43-.51.66-.89,1.16-1.28,1.65-.12-.1-.25-.19-.37-.29-.07-.33-.14-.65-.23-1.11q-.62,1.18-2.26.52c-.14.29-.27.58-.42.89-2.35-1.45-2.51-1.45-2.57-.12-.6-.33-1.19-.77-1.85-.99-.63-.2-1.34-.16-2.02-.11-.4-.2-.7-1.65-1.24,0-.05.15-.47.3-.65.24-.53-.18-1-.42-1.4.26-.04.07-.59-.15-.9-.24-.01.07-.02.14-.03.21Zm-54.82,7.31c-.27.69-.6,1.35-.78,2.05-.11.44.02.94.05,1.42.39-.02.89.11,1.14-.09,1-.77,1.92-1.65,3.06-2.65-.57-.3-1.1-.58-1.82-.96,0-.01-.12-.3-.32-.8-.28.53-.43.83-.51.97-.31-.6-.65-1.26-1-1.93-.09.04-.18.09-.28.13.12.4.23.79.35,1.2-.26.05-.49.1-.93.2.43.2.66.31,1.03.47Z"/>
  <path class="cls-1" d="m370.04,117.43c.32-.16.77-.23.92-.49.96-1.63,1.87-3.29,2.77-4.95.32-.6.87-1.27.81-1.85-.15-1.36.91-2.09,1.3-3.13.39-1.04.61-2.15.96-3.21.31-.96.72-1.88,1.05-2.83.22-.63.41-1.27.59-1.91.27-1,.48-2.01.78-3,.43-1.43.35-2.85.09-4.28-.04-.2.03-.42.3-.63.03.38.06.76.1,1.37.36-.68.62-1.18.88-1.67-.13.03-.26.06-.39.09-.17-.37-.6-.88-.48-1.1.65-1.24.31-2.45.11-3.68-.04-.26-.07-.51-.09-.72.39.05.7.09,1.02.13-.13-.37-.27-.74-.48-1.34.1-.09.39-.36.52-.49-.34-.63-.68-1.29-1.03-1.96.09-.06.17-.12.26-.18.31.18.62.35.94.53l.24-.3c-.38-.36-.77-.71-1.24-1.15-.08-1.68-.18-3.7-.28-5.71-.11.06-.21.11-.32.17-.54-.96-1.07-1.93-1.66-2.99q.97-.04,1.36,1.95c.77-1.67-.66-2.83-.53-4.11,1.62-.12,3.15-.24,4.82-.37-.17.34-.31.64-.54,1.1.7-.29,1.27-.54,1.85-.77.94-.36,1.94-.62,2.82-1.1.37-.2.52-.83.8-1.33.12.2.24.41.41.7.47-.43.9-.83,1.33-1.23,0,.05,0,.09,0,.14,1.16-.54,2.32-1.07,3.53-1.64.03.12.08.32.22.87.22-.67.34-1.04.46-1.4l.09.22c1.13-.67,2.25-1.34,3.28-1.95.52-.11.96-.19,1.4-.29.07-.02.19-.12.2-.11.77.98,1.69-.49,2.52.13.08.06.65-.55,1.08-.92.32.19.32,1.38,1.22.63.85,1.34,3-.2,3.64,1.63.16-.06.37-.21.49-.15.44.2,1.06.37,1.23.74.41.88,1.38,1.86.43,2.81-.67.68-.45,1.5-.78,2.21-.22.46-.04,1.11-.04,1.68.57.24,1.61.16.77,1.35-.37.52-.58,1.23-.64,1.88-.06.63-.22,1.52,1.1,1.41-1.23,1.71-.84,3.04.43,4.28-.19-.16-.39-.33-.87-.73.3,2.27,0,4.31,1.37,6.06-.4.13-.84.27-1.28.41,0,.08,0,.16.01.24.45.11.9.22,1.5.37-.27.23-.5.42-.81.67.21.15.41.29.67.47-.26.24-.52.47-.77.71-.22.2-.43.4-.65.6.31.02.62.04,1.09.08-.28.36-.54.71-.83,1.1.18.39.37.82.6,1.3-.35.05-.63.1-.97.15,1.01.95,1.49,2.67,1.02,3.48,1.39-.1,2.79-.2,4.31-.31.15-1.31,1.23-.69,2.1-.61.53.05,1.19.4,1.28-.44,1.29.02,2.75-.55,3.44,1.19.18-.55.3-.9.42-1.25.13.05.26.1.39.15-.22.62.38,1.63-.95,1.74-.86,1.95-3.01,1.97-4.48,3.01-.95.67-1.84,1.43-2.82,2.06-.35.22-.88.16-1.39.24-.17.23-.43.61-.73,1.03-.37-.35-.67-.63-.96-.91.51.77.57,1.58.35,2.41-.02.08-.47.06-.91.33.41.27.83.54,1.23.8-.26.18-.7.49-1.15.8.36.16.66.3.95.43-.17.22-.35.44-.65.82.14.28.39.76.57,1.11-.18.67-.34,1.29-.5,1.92.16.08.32.15.47.23.11-.35.23-.69.34-1.04.04.11.08.22.12.34-.05.94-.1,1.87-.14,2.81,0,.11.13.28.09.33-.87,1.05-.33,1.95.24,2.93-.2-.12-.4-.23-.6-.35.55.81.24,1.78.56,2.65.39,1.06,0,2.39.21,3.55.14.76.44,1.41.3,2.27-.12.76.35,1.6.35,2.4,0,.36-.5.72-.67,1.23.21-.14.42-.27.63-.41.11.03.22.06.33.09-.18.58-.36,1.17-.59,1.89.08.06.34.25.34.24-.18.56-.53,1.13-.39,1.3.83,1.03.35,2.24.62,3.39-.29.03-.58.06-.59.06.06,1.25.32,2.43.12,3.53-.19,1.05-.51,2.03-.34,3.13.04.24-.6.56-.87.89-.34.41-.62.86-.83,1.36-.3.09-.65-.15-.76.77-.12,1.01-.88,1.94-1.65,2.88-.09-.44-.19-.88-.3-1.39-.79.32-2.03.24-1.49,1.94-.87-.65-1.59-1.18-2.3-1.71.21-.15.43-.31.64-.46-.35-.19-.71-.38-1.06-.57-.78-.47-.34-2.06-2.14-2.03-.43-1.6-.87-3.34-1.37-5.06-.96-3.33-1.77-6.72-3.04-9.93-.54-1.36-2.06-2.34-3.12-3.5-.15-.17-.23-.4-.35-.6.07-.09.14-.18.22-.27.63.45,1.24.92,1.9,1.32.33.2.77.22,1.1.43.2.13.27.45.45.65.42.57.84,1.14,1.26,1.71.08-.01.16-.02.25-.03v-2.08c.84,1.25,1.39,2.35,2.67,2.79-.43.4-.7.66-.97.92.07.13.13.25.2.38.36-.18.73-.37,1.15-.58.21.27.53.62.79,1.02.22.32.35.97.55.98.58.03,1.18-.15,1.74-.33.14-.05.3-.56.27-.59-.82-.57.24-1.07.04-1.67-.21-.61-.23-1.32-.21-1.98.01-.41.26-.82.43-1.31-.89-.41-1.14-1.06-.67-2.01.12-.24-.15-.68-.37-.99-.35-.4,1.24-1.02.03-1.24-.13-1.2-.26-2.27-.36-3.35-.12-1.34-.21-2.68-.31-4.02-.07-1.01-.13-2.03-.21-3.28.04-.03.34-.26.63-.49-.1-.01-.2-.02-.3-.03-.06-1.15-.1-2.3-.17-3.45-.03-.41-.01-1.05-.23-1.16-.4-.2-.99-.2-1.43-.05-.87.3-1.67.8-2.53,1.11-.38.14-.85.02-1.48.02-.45.31-.79,1.23-1.99.74-.52-.22-1.36.46-2.08.53-.51.05-1.21.84-1.62-.2-.02-.06-.36.01-.68.03.2.33.34.57.65,1.07-.97.08-1.81.15-2.65.23-.22.02-.46.03-.65.13-1.28.69-1.59.65-2.28-.21-.45.21-.84.52-1.26.55-.32.02-.66-.31-1.17-.59-.06.48-.15,1.22-.24,1.96-.23-.27-.45-.55-.68-.82-.22.95-.44,1.91-.67,2.93-.05-.02-.26-.12-.75-.36.26.71.44,1.2.6,1.64-.35-.07-.83-.17-1.3-.27.1.25.21.5.23.56-.15.4-.41.74-.33.95.47,1.17.3,1.72-.74,2.37-.23.14-.34.49-.45.77-.39,1.01-.64,2.13-2.1,2.09-.18,0-.39.21-.53.37-.77.89-1.48,1.84-2.29,2.69-.4.42-.93.77-1.47.97-1.94.72-3.61,1.79-5.05,3.29-.62.65-1.43,1.12-2.17,1.66-.63.46-1.24.76-1.7-.31-.15.52-.26.91-.37,1.3-.11-.01-.23-.02-.34-.03-.22-.82-.83-1.54-.02-2.52.44-.53.03-1.47.86-1.98.62-.38,1.25-.89.88-1.89-.07-.2.58-.67.68-.78h1.74c0-.12,0-.24,0-.36-.26.01-.51.03-.97.05.52-.75.51-1.56,1.28-2.21.63-.53,1.41-1.33,1.26-2.43l-.03.03Zm31.1-32.77c-.18.36-.33.66-.48.96-.25-.05-.5-.1-.69-.14.04.79.08,1.51.12,2.37-.18-.37-.29-.6-.4-.83-.11.08-.21.16-.32.23-.13.97-.26,1.95-.37,2.77-.17-.2-.39-.46-.74-.86-.12,2.21-.54,2.77-1.72,2.48-.09.25-.32.55-.25.76.28.89.09,1.28-.91,1.14-.08-.01-.24.43-.35.67-.23.5-.37,1.08-.7,1.49-.23.28-.74.36-1.14.49-.21.07-.45.05-.68.06.3.41.53.72.76,1.03-1.92-1.02-2.01,1.16-2.83,1.44.35.72.65,1.35.99,2.06.97-.09,2.13-.18,3.28-.3.19-.02.38-.11.56-.19.59-.27,1.17-.56,1.76-.84.08.11.15.22.23.33.08-.25.15-.5.16-.52,1.18-.31,2.2-.57,3.21-.83.18-.42.36-.83.45-1.04.63.19,1.05.31,1.64.48.13-.73.18-1.47.39-2.17.51-1.68.61-3.34-.04-5.01-.06-.14-.14-.36-.07-.45.76-1.02,0-2.05-.06-3.04-.04-.69.54-1.34.31-1.71-.66-1.05-.66-1.92.18-2.77-.43.09-.81.17-1.24.26.11-.65.28-1.16.27-1.67,0-.77-.15-1.53-.2-2.3-.04-.69-.98-1.36-.05-2.12.08-.07-.41-.67-.35-.97.26-1.29.29-2.54-.1-3.81-.41-1.31-1.23-2.26-2.51-2.67-.4-.13-.98.3-1.48.47-.07.02-.16.02-.23,0-1.67-.18-2.5,1.21-3.79,1.93-.25-.04-.62-.11-.66-.12-.86.82-1.53,1.47-2.23,2.14-.06-.44-.11-.81-.13-.98-.68.46-1.2.99-1.84,1.2-.7.23-1.49.17-2.1.22-.2,2.47,1.04,4.86.18,7.65,1.16.11,2.19.2,3.34.3-.18-.42-.31-.74-.55-1.31.62.35.98.55,1.52.86.18-.22.4-.49.63-.78.1.16.22.35.43.69.15-.43.24-.68.31-.85.47.06.97.28,1.22.12.98-.63,1.98-.25,2.75.14.83.42,1.25.44,1.61-.38,2.11,1.07,2.25,1.56,1.55,2.88.47.35.89.66,1.38,1.02Zm-14.34,5.5c.15-.05.31-.09.46-.14.42.5.84,1,1.32,1.57.06-.19.17-.52.26-.81.18.09.36.19.66.34-.06-.49-.1-.83-.12-.98,1.26-.8-.28-2.28.83-2.94-1.13-.82-.84.47-.95.63-.74-.07-1.23-.11-1.72-.15.04.49.08.99.12,1.39-.28.37-.57.73-.85,1.1Z"/>
  <path class="cls-1" d="m86.05,106.44c.19-.14.45-.34.68-.52-.23-.35-.45-.6-.56-.89-.12-.32-.14-.69-.21-1.06.23-.09.5-.2.75-.29-.13-.77-.24-1.5-.36-2.24,1.06-.02,1.02,0,.63-.91-.1-.23.13-.63.26-.93.19-.45.43-.89.64-1.33-.09-.06-.18-.13-.27-.19-.19.1-.37.19-.56.29-.06-.09-.12-.18-.18-.28.37-.2.74-.4.87-.47.06-1.13.11-2.14.16-3.22-.94-.24-.55-1.45-.31-1.74,1.06-1.25.32-2.16-.29-3.16-.1-.16-.21-.31-.38-.57.92.07,1.04-.26.68-.94-.28-.53-.34-1.07.41-1.26-.25-1.75-.51-3.54-.78-5.39q.42-.21-.19-1.64c-1.4.57-2.79,1.14-4.27,1.74-.34-.66-.48-1.64-1.53-1.07.11.37.26.87.48,1.62-.74-.4-1.2-.64-1.6-.85-.25,2.33-2.22,1.3-3.46,1.83.41-1.1.23-1.25-.88-1.07-.18.41-.24.85-.43.93-.24.09-.65-.07-.89-.25-.44-.32-.8-.76-1.23-1.11-.93-.76-1.06-1.87-.9-2.86.14-.9.89-1.34,1.96-1.42.8-.06,1.55-.7,2.36-.97.68-.23,1.41-.32,2.25-.49.04-.23.11-.59.21-1.1.33.31.56.53.88.82.17-.22.46-.43.46-.62-.03-.7.38-.77.83-.57.67.28,1,.12,1.55-.39.46-.42,1.42-.33,2.16-.41.76-.08,1.37-.2,1.5-1.18.05-.37.6-.67.89-.97-.34-.62-.69-1.26-1.04-1.9.07-.06.14-.12.22-.19.26.09.51.18.79.27-.22-.68-.44-1.32-.64-1.98-.16-.55-.29-1.12-.67-1.62,0-.82,0-1.65,0-2.47.19.1.37.2.64.34-.12-1.29-.23-2.47-.34-3.71-.18.08-.45.2-.72.32-.02-.03-.09-.12-.07-.15.44-.66.19-1.06-.15-1.78-.55-1.13-.46-2.58-.67-4.11,1.96.77,1.94-1.62,3.42-1.56.08.25.17.57.34,1.14.24-.52.4-.87.65-1.4.22.3.55.55.58.84.04.33-.19.7-.36,1.23-.02-.02.17.17.39.4.33-.35.61-.65,1.05-1.12.22.8.39,1.42.57,2.06.22-.04.46-.08.92-.16-.29.48-.47.78-.68,1.12.24.04.43.07.64.11-.22.16-.44.32-.61.44.2.45.38.86.6,1.34.13-.05.33-.14.84-.34-.12.56-.2.96-.29,1.35-.1.43-.26.73.05,1.27.49.85,1.01,2.04.76,2.85-.19.62.28,1.39-.31,1.97.2-.11.41-.22.76-.41-.25,1.54.51,3.08-.54,4.49-.14.19.15.69.26,1.1,1.08-.94,2.71-1.25,3.46-.73.3-.38.61-.76.75-.94.68-.09,1.16-.21,1.63-.19.51.02,1.01.22,1.52.24.53.02,1.18.1,1.56-.16.69-.49,1.1-.07,1.65.16.66.28,1.37.46,2.05.68-.05.21-.09.41-.14.62-.54-.05-1.08-.09-1.73-.15.34.23.63.43,1.08.73-.47.41-.92.8-1.37,1.2-.09-.06-.19-.12-.28-.18.04.62.07,1.24.11,1.81-.52.61-1.2,1.17-1.55,1.88-.6,1.22-.72,1.34-2.16.71.29-.15.51-.27.74-.39-.29-.11-.58-.23-.87-.33-.29-.09-.59-.16-.95-.26-.07.26-.14.54-.15.58-1.73.76-3.3,1.44-4.93,2.16.12,1.24.25,2.51.4,3.96-.11.09-1.14-.03-.29.91.26.29-.13,1.16-.25,1.89.42-.17.76-.31,1.4-.58-.35.87-.61,1.51-.92,2.26.28.12.59.26.98.42-1.11.86.36,2.94-1.65,3.57.29.64,1.66,1.22.13,2.16.17.02.34.03.51.05-.11.55-.22,1.1-.38,1.87-.11-.12-.02,0,.1.1.12.1.26.18.43.3-.15.21-.25.32-.33.45-.08.13-.14.27-.25.48.29.11.52.19.79.29-.16.37-.21.89-.47,1.04-.94.56-.54,1.2-.08,1.68.58.61.51,1.19.25,1.85-.32.8-.37,1.49.12,2.35.34.59.09,1.52.12,2.29,0,.18.07.36.09.54.07.71.59,1.43-.09,2.14-.08.09.21.5.27.78.05.21,0,.43-.01.65-.17-.03-.35-.07-.5-.1.09.5.19,1.01.3,1.6.67-.68,1.99,1.51,2.45-.5,1.31,1.11,2.33.15,3.26-.31.18.22.36.56.44.53.32-.1.6-.3.92-.48.61.83,1.23.72,2.5-.63.24.17.48.35.72.52,0-.09,0-.18,0-.27h4.32c-.03-.27-.06-.52-.08-.78.15-.03.27-.08.29-.05,1.45,1.72,3.06.76,4.64.28.55-.17,1.08-.37,1.52-.76.33.06.74.28.99.16,1.09-.54,2.2-.3,3.31-.23.15.01.31-.08.46-.12-.01-.13-.02-.25-.03-.38.17.08.34.16.3.15,1.41-.32,2.71-.61,4.04-.91.13.21.32.51.67,1.07,0-.57,0-.85,0-.84.92-.15,1.72-.29,2.67-.45,0,0,.09.24.19.49.48-.3,2.08-.34,2.6-.11.15.07.41.1.52.02.64-.44,1.04-.14,1.67.17.73.36,1.75.23,2.63.17.58-.04,1.13-.35,1.75-.55v.81c.35-.22.63-.39.72-.44.81.33,1.51.84,2.21.85,2.19.03,4.16.8,5.99,1.82.56.31.75,1,1.51-.07-.07.6-.12.93-.16,1.27.08-.06.16-.12.23-.18.51.5,1.21.92,1.48,1.53.21.48.16,1.3-.63,1.61-.15.06-.28.2-.42.22-.57.07-1.33-.75-1.68.19-.21.55-.04,1.24-.04,2-.54-.57-.97-.78-1.6-.02-.46.56-1.3.82-1.99,1.18-.14.07-.49.04-.54-.05-.62-1.13-1.59-.5-2.62-.52.33-.26.55-.45.84-.68-2.97-.36-5.85-.69-8.73-1.05-.94-.12-1.88-.42-2.81-.38-1.19.05-2.36.51-3.55.52-.79,0-1.82.73-2.4-.5-.46.36-.88.68-1.06.82-.61-.28-1.03-.47-1.46-.67-.48,1.03-.47,1.02-1.11.33-.11-.12-.44-.2-.53-.13-.73.58-1.14.04-1.57-.41-.54.22-1.07.43-1.63.65.01.18.03.44.06.8-.54-.16-1.03-.22-1.43-.44-.56-.32-1.04-.48-1.63-.05-.15.11-.52-.09-.86-.16-.61.94-.81.96-1.5-.05-.49,1.12-1.28,1.21-2.34.86-.44-.15-1.03.13-1.64.23,0-.1-.03-.36-.09-.94-.41.5-.66.8-.91,1.1-.47-.18-.94-.36-1.11-.42-.66.23-1.03.42-1.43.48-.55.09-1.11.1-1.66.09-.37,0-.73-.18-1.1-.18-.44,0-.89.12-1.33.19l.07.34c.33-.02.66-.04.99-.06.01.13.03.27.04.4-.49-.03-1.01.03-1.47-.12-.61-.19-1.11-.4-1.58.26-.12.17-.5.27-.74.23-.94-.15-1.87-.36-2.8-.58-.64-.15-.89.03-1.1.65-.14.41-.47.75-.7,1.11-.12-.02-.24,0-.26-.04-.41-.89-1.23,0-1.63-.34-.3-.26-.3-.88-.44-1.33-.11.02-.23.05-.34.07v1.12c-1.13,0-1.91-1.68-3.09-.44.33.06.7.13,1.08.2,0,.08,0,.17.01.25-1.37.13-2.74.26-4.39.41-.23.07-.75.31-1.3.39-.86.13-1.63.4-2.42.77-.49.23-1.35.65-2.03-.09-.12-.13-.73.15-1.09.31-.43.19-.8.53-1.24.67-.35.11-.78.1-1.14.02-2.02-.43-3.65,1.22-5.63.99-.55-.06-1.1-.03-1.66-.04-.12,0-.31-.01-.34.05-.83,1.4-1.89.5-2.85.25-.12.41-.22.77-.35,1.2-.6-.46-1.06-.81-1.53-1.17-.28.45-.54.87-.81,1.31-.68-.72-1.15-1.14-1.83-.04-.26.42-1.22.43-1.87.59-.33.08-.67.09-1.05.13v-1.11c-.31.58-.45.84-.63,1.18-.21-.09-.49-.13-.53-.25-.31-.93-.92-.46-1.45-.35-.38.08-.76.18-1.14.27-.07-.13-.13-.27-.2-.4-.26.35-.52.7-.86,1.16-.25-.36-.4-.58-.41-.59-1.38,0-2.63.04-3.88-.01-.92-.04-1.12-.15-1.37-.66-.51-1.07-1.11-1.12-1.92-.12-.91-1.33-1.88-2.53-2.58-3.87-.25-.48-.02-1.43.34-1.91.22-.3,1.1-.15,1.68-.11.87.05,1.74.15,2.6.27.79.12,1.61.69,2.31-.26.07-.09.51.11.78.15.66.08,1.32.28,1.72-.58.28-.61.72-.44,1.06.05.19.27.4.53.69.92.04-.46.07-.74.1-1.02.08,0,.16,0,.24,0,.02.2.04.4.06.6.07.01.17.06.22.03.76-.47,1.44-.84,2.44-.32.4.21,1.19-.39,1.82-.56.25-.07.54-.02.8.02.5.08,1,.2,1.73.36-.22-.59-.32-.86-.41-1.13.09-.04.18-.08.27-.13.12.25.23.5.23.49.57.16.96.26,1.35.37-.04-.05-.08-.1-.12-.16.99-.21,1.98-.61,2.96-.59,1.05.02,2,.12,2.6-1.11l.19.3c-.11.26-.23.51-.39.87.96-.43,1.8-.8,2.64-1.18.46.15,1.04.5,1.61-.35.08-.12.35-.17.53-.16.73.05,1.47.16,2.2.19.14,0,.26-.33.43-.37,1.2-.3,2.41-.58,3.63-.83.07-.02.21.26.43.56.06-.51.11-.84.18-1.4.38.46.61.74.85,1.03.7-.18.36-1.36,1.43-1.39.77-.02,1.43-.27,1.71.92,1.37-1.18,2.67-2.34,4.6-1.44v-6.31Z"/>
  <path class="cls-1" d="m358.68,48.73c1.34.94,2.81-.51,4.53-.23-.57-1.3-1.07-2.45-1.61-3.68.08-.23.21-.58.37-1.05-.51.14-.86.24-1.2.34.29-.44.55-.83.8-1.22l-.14-.14c-.22.11-.45.22-.73.35-.38-.68-.82-1.34-1.1-2.06-.09-.23.2-.63.35-.93.17-.34.31-.78.59-.94.37-.22.87-.21,1.56-.35.06-.12.26-.57.43-.93.66.11,1.24.2,1.88.3.03.43,1.04.76.58,1.63-.04.07.87.65,1.35.97.57.39,1.16.76,1.8,1.18.3-.43.74-1.16,1.29-1.8.29-.33.8-.46,1.14-.76.44-.38.78-.89,1.24-1.25,1.04-.84,2.16-1.58,3.18-2.45.76-.65,1.41-1.42,2.11-2.14.1-.11.16-.28.28-.36,1.5-.95,2.65-2.28,3.9-3.49.76-.73,1.52-1.47,2.36-2.1,1.74-1.3,3.7-2.02,5.9-1.85.47.03.91.37,1.37.57-.12.07-.25.14-.37.21.15.61.29,1.22.49,2.05.28-.41.43-.63.59-.87.35.73.71,1.46,1.06,2.18.14-.03.28-.06.42-.1-.23.37-.47.74-.76,1.19,1.42.2-.15,2.85,2.1,2.51v1.25c-.28-.08-.5-.15-.91-.27.75,2.47.31,4.74-.53,7.25.95-.53,1.59-.89,2.32-1.3.02.28.04.52.06.85.49-.22.95-.43,1.41-.64,0,.08,0,.15,0,.23,1.1-.17,2.19-.34,3.51-.54.68-.8.89-.88,1.83-.36h-.8c0,.08-.01.15-.02.23.29.05.59.19.85.13,1.25-.28,2.48-.64,3.73-.89.28-.06.63.24.89.65.77-.27,1.52-.68,2.31-.78,1.2-.15,2.42-.08,3.63-.11,1.24-.03,2.48-.06,3.71-.15.19-.01.35-.37.54-.21,1.2.02,2.4,0,3.6.06.68.04,1.35.22,2.02.34.18.03.38.15.53.11.94-.29,1.86.73,2.79.03.04-.03.18,0,.22.04.74.87,1.46,1.75,2.19,2.62-.18.02-.36.03-.53.05-.23.37-.41.78-.7,1.1-.49.54-1.05,1.02-1.64,1.59.23.2.44.39.75.66-1.56.97-3.1,1.91-4.63,2.86,0-.13,0-.26,0-.39-.76-.19-1.53-.53-2.29-.54-1.82-.01-3.63.12-5.45.22-.69.04-1.38.13-2.07.24-1.92.29-3.84.6-5.75.89.21-.41.42-.82.63-1.22-.13-.13-.25-.26-.38-.39-.76,1.6-1.98,2.07-3.51,1.6.01-.07.05-.25.09-.44-.45.12-.87.25-1.3.34-.54.12-1.08.33-1.62.3-1.11-.06-2.22-.26-3.32-.4-.08,0-.2-.02-.23.02-.73.92-1.82-.02-2.63.51-.12.08-.4.04-.55-.04-.69-.38-1.25-.82-1.38.55-.03.27-.4,1.04-.76,1.5-.1.13-.18.42-.11.54.6,1.02-.13,1.23-.98,1.48.89.49.82,1.07.49,1.88-.29.71-.61.79-1.24.69-.27-.05-.56.06-.85.1.13.28.26.57.38.85.29-.33.5-.56.85-.96v2.39c-.3.02-.64.05-.98.07.2.96-2.29.98-.75,2.24-.73.11-1.37.21-2.01.31.01.12.02.23.03.35.43.19.86.37,1.68.73-1.38.61-2.44,1.08-3.5,1.55-.1-.49-.2-.94-.3-1.39-.1,0-.2.02-.3.02-.04.26-.09.52-.13.78-.06-.06-.11-.13-.17-.19-.58.42-1.15.84-1.77,1.29-.04-.5-.08-.97-.11-1.43l-.29-.05c-.11.33-.23.65-.38,1.11-.25-.27-.44-.47-.66-.7-.1.17-.2.33-.38.61-.37-.55-.7-1.06-1.04-1.57-.27.13-.61.3-.97.47-.36-2.58,1.46-3.94,2.53-5.69.12.04.24.08.36.11-.14-.33-.28-.66-.5-1.2.43.26.68.42.93.57.06-.06.12-.11.18-.17-.21-.29-.42-.59-.69-.97.63-.85,1.28-1.73,1.97-2.68-.02-.01-.21-.19-.35-.31.17-.64.32-1.23.47-1.82-.08-.08-.16-.16-.24-.24-.64.34-1.29.69-1.93,1.03.05.07.09.15.14.22h-3.94c.21.56.2.55-.68.79-.13.03-.2.27-.29.42-.08.13-.15.26-.21.38-.36-.11-.68-.21-.99-.3,0,.31-.03.62,0,.93.07.8-.63,2.19-1.23,2.32.11.32.28.63.31.95.02.27-.04.72-.2.78-.25.11-.67.06-.9-.1-.71-.48-1.36-1.05-2.09-1.63-.49.88-1.4,1.03-2.47.48-.11-.05-.31-.09-.31-.15-.1-2.02-1.7-.87-2.58-1.18-.46-.17-1.2-.92-1.39.45-.21-.32-.34-.53-.49-.78-.46.43-.53,1.66-1.49.63-.32,1.19-4.48,1.88-5.47.93-.18.47-.36.93-.54,1.4-.11,0-.21,0-.32-.01-.1-.34-.2-.68-.31-1.02-1.31,1.21-2.77,1.22-4.44.65.22.25.43.5.85.99-.79-.17-1.34-.27-1.89-.41-.46-.12-.98-.63-1.19.27-1-.37-1.38,1.24-2.51.74-.39-.17-1.02.3-1.55.36-.46.05-.94-.07-1.34-.28-.4.1-.81.2-1.29.32,0,.01-.02.17,0,.31.03.15.1.29.16.44-.41.2-.81.39-1.22.58-.07-.18-.13-.35-.27-.7-.42,1.81-2.01,1.31-2.99,1.45-1.38.19-2.48,1.24-3.93,1.05-.2-.03-.43.44-.7.59-.53.3-1.07.6-1.64.76-.15.04-.44-.39-.73-.66-.68.55-1.26,1.41-2.42,1.19-.16-.03-.5.87-.76,1.34-.17-.15-.34-.31-.51-.46.06-.23.12-.47.23-.91-.49.39-.83.67-1.09.87-.51-.34-.98-.64-1.46-.96-.06-.27-.14-.63-.25-1.16-.29.56-.46.87-.62,1.18-.34-.21-.76-.34-.99-.63-.65-.83-1.23-1.73-1.8-2.61-.09-.14-.09-.47,0-.56.55-.54,1.06-1.24,1.74-1.49.71-.26,1.58-.05,2.38-.11.62-.05,1.39,0,1.81-.35.8-.66,1.63-.87,2.61-.82.47.02.92.12,1.07-.6.05-.26.72-.61,1.03-.55.86.19,1.28-.36,1.76-.83.37-.36.84-.31,1.38-.29.67.02,1.43-.14,1.98-.49.35-.22,1.33-.02,1.05-.99-.01-.04.53-.33.59-.28.82.79,1.28-.04,1.93-.3.73-.29,1.58-.28,2.34-.5.34-.1.62-.45.98-.73.04.05.19.23.34.41.1.13.2.27.3.4.23-.39.42-.8.69-1.16.11-.14.5-.29.55-.23,1.06,1.21,1.92-.21,2.88-.21.55,0,1.1-.08,1.64-.08.25,0,.49.11.74.17-.08-.27-.17-.54-.25-.82.77.57,2.32.44,3.12-.18.23-.18.63-.26.92-.21.76.13,1.5.36,2.08-.42.06-.08.42.12.6.06.55-.19,1.09-.45,1.88-.79Zm19.11-11.08c-1.11.67-2,1.4-1.53,2.92.08.27-.21.71-.43,1-.94,1.27-1.85,2.53-1,4.37.23-.4.41-.71.59-1.02.03.11.07.22.1.33.84-.13,1.9.03,2.47-.43,1.75-1.41,3.89-.89,5.78-1.49.32-.1.71-.51.77-.83.31-1.76.34-3.59.85-5.29.43-1.45.79-2.78.43-4.31-.29-1.23-1.15-1.82-2.26-1.29-.61.29-1.34.46-1.79.91-.69.69-1.18,1.58-1.73,2.36-.39-.02-.85-.05-1.34-.08.13.8,1.07,1.73-.68,1.53-.72-.08-.73.77-.22,1.33Z"/>
  <path class="cls-1" d="m370.07,117.4c-.61-.26-.87-.05-.95.62-.04.33-.29.63-.36.77-.48-.06-1-.21-1.06-.11-.24.41-.33.91-.44,1.27-.72-.4-1.55-.86-2.35-1.3-.11.17-.25.4-.39.62-.12-.21-.22-.44-.37-.63-.27-.36-.11-1.27-1.14-.76-.06-.92-.47-1.36-1.17-.89-.43-.41-.77-.73-1.13-1.06.09-.14.22-.35.45-.72-.38.09-.59.13-.9.2.07-.54.14-1.05.21-1.63-.59.37-1.09.68-1.73,1.08.03-.29.02-.37.05-.4.22-.22.46-.44.69-.65-.08-.08-.2-.25-.24-.23-.33.13-.66.28-.97.46-.19.11-.39.46-.49.43-.35-.11-.65-.35-1.13-.64-.04.06-.25.35-.42.59-.36-.23-.73-.47-1.11-.71-.06.07-.12.14-.18.21.16.28.32.56.58,1-.4.08-.71.15-1.02.21-.43.09-.86.17-1.29.28-.18.05-.44.29-.48.25-1.29-1.18-2.62.47-3.94-.16-.06-.19-.15-.47-.3-.9-.3,1.36-.56,2.53-.81,3.66-.71.43-1.47.88-2.28,1.36-.31-.76-.62-1.53-.96-2.36-.52-.04-1.29-.62-1.79.38-.03.05-.3.07-.35.02-.44-.56-.87-1.15-1.29-1.72-.17-.22-.29-.51-.5-.66-1.71-1.16-1.81-2.87-.08-4.24h-1.04c.22-1.29.43-2.57.65-3.85-.08.01-.16.03-.24.04-.11-.36-.33-.73-.29-1.07.09-.74.32-1.47.35-2.18.22-.34.66-.72.61-1.02-.09-.54.55-1.14-.17-1.67-.14-.1.21-.9.39-1.36.44-1.15,1.15-2.22.67-3.57-.11-.31.06-.89.31-1.12.74-.67.87-1.92.16-2.75-1.04-1.21-.99-1.61.05-2.32,0-.6-.08-1.02.02-1.4.25-.98.02-1.79-.66-2.51-.16-.17-.26-.39-.38-.57.51-.31.98-.59,1.63-.98-.49-.16-.76-.24-1.15-.37.92-.78,1.02-1.65.51-2.66-.08-.17.28-.55.44-.84.86-1.56.71-3.11-.11-4.8.91-.39,1.76-1.02,2.65-1.06.77-.04,1.58.57,2.37.89-.11.06-.23.12-.34.18.13.4.15.92.41,1.17.46.44.98.73.89,1.51-.02.14.39.34.42.36.67-.58,1.22-1.14,1.85-1.59,1.35-.96,2.73-1.88,4.12-2.77.21-.14.58,0,.85-.07.29-.08.63-.2.82-.41.84-.94.83-.95,1.55-.25.35-.48.72-.96,1.05-1.47.32-.48.75-1.46.87-1.42,1,.34.79-.97,1.43-.73.41.07.82.14,1.25.22-.19-.61-.32-1.05-.45-1.49.48-.02.97-.04,1.63-.07,0,0,.08-.24.18-.51.91.8,1.82,1.61,2.73,2.41.28-.03.72-.12,1.14-.09.4.02.8.16,1.22.26.92,1.26,1.9,2.59,2.89,3.93-1.31.6-1.94,3.45-1.09,4.68-.32.13-.88.21-.92.4-.08.37.01.89.23,1.21.58.87.78,2.14.36,3.05.76.71.8,1.74.23,2.33.22.62.4,1.16.5,1.44-.57.72-.97,1.22-1.37,1.72.38.21.76.42,1.23.68.03.26.09.73.16,1.32-.29-.14-.56-.28-1.17-.58.42.72.67,1.16.97,1.68-.42.16-.84.33-1.26.49l.1.29c.29-.1.59-.19.99-.33.19.65.39,1.29.6,1.99-.41.07-.74.12-1.09.18.17.44.36.82.44,1.22.06.31-.02.65.18.98-.05.79-.1,1.59-.17,2.63.56-.33.78-.46,1.02-.6.03.13.08.22.07.29-.24,1.3-.34,2.65-.79,3.87-.34.93-.44,1.74-.2,2.67.05.2-.14.59-.33.71-.97.61-.11,1.07.1,1.57.14.33.49.66.46.95-.15,1.22-.39,2.44-.66,3.64-.04.2-.38.34-.76.65.16.34.4.86.67,1.46-.32.18-.69.38-.87.48.29.53.5.93.71,1.33,0,0,.03-.03.03-.03Zm-8.4-38.47c-2.5.75-4.81,1.45-7.02,2.12.03-.07.11-.29.24-.62-.46.15-.77.25-.96.31.03.31.17.68.06.77-.53.47-1.13.87-1.79,1.36-.43-1.05-.9-.94-1.42.1-.11.22-.6.36-.92.36-1.29.02-1.38.28-.96,1.47.21.6,1.12,1.51-.14,2.16-.14.07-.06.6-.04.92.05.8.16,1.61.18,2.41.02,1.16-.68,2.35.3,3.52.28-.2.61-.43.94-.68.81-.6,1.57-1.27,2.66-1.3.15,0,.33-.03.44-.12.64-.53,1.26-1.1,1.91-1.63.21-.17.5-.21.74-.34.53-.27,1.06-.54,1.57-.84.46-.28.86-.78,1.35-.87,1.37-.26,2.79-.3,4.17-.53.92-.16,1.14-1.05.67-1.84-.23-.39-.2-.95-.28-1.43.11-.03.21-.06.32-.1-.27-.22-.54-.44-.82-.65.14-.03.27-.06.41-.1.04-.64.26-1.34.09-1.92-.3-1-.84-1.94-1.29-2.89-.03-.07-.2-.08-.38-.14v.47Zm-4.64,28.07c.53.06,1,.21,1.45.16.72-.09,1.43-.34,2.15-.46.25-.04.57.21.8.13.48-.16,1.09-.75,1.34-.61.77.42.93-.25,1.27-.53.61-.5.32-1.68,1.38-1.89,0,0,0-.49-.13-.64-.09-.11-.41-.1-.6-.04-.14.04-.22.25-.29.33-.06-.88-.12-1.71-.17-2.54-.08.02-.15.03-.23.05.34-.8.68-1.61.92-2.16-.35-.45-.8-.77-.79-1.08.04-1.22.06-2.41-.73-3.45-.04-.05,0-.15.02-.28.24.08.46.15.68.23.06-.08.11-.16.17-.24-.28-.26-.56-.52-.8-.74.14-.36.3-.77.46-1.19-.67.61-.92,1.65-1.54,1.98-2.41,1.28-4.29,3.17-6.31,4.91-.51.44-1.12.77-1.57,1.07-.36.51-.59,1.07-1,1.38-1.62,1.23-2.55,2.84-2.87,4.82-.15.95-.29,1.91.95,2.34.18.06.24.47.38.78,1.66-.62,3.34-1.26,5.09-1.92,0,.03-.01-.18-.03-.43Zm-2.7-12.33c-.2-.03-.47-.95-1-.03-.76-.59-1.42.02-2.13.13-.26.04-.59-.4-.88-.62-.07-.05-.12-.11-.26-.24v.83c-.28-.2-.48-.34-.71-.51-.06.29-.03.52-.14.64-.63.74-.87,1.59-.28,2.39.78,1.05.02,2.23.45,3.28.05.13.03.33-.03.47-.4.88-.05,1.67.17,2.5.41-.11.72-.19,1.02-.27-.32-.96-.21-1.29.51-1.9.22-.19.49-.48.5-.73.11-1.78,1.27-2.99,2.22-4.32.11-.15.11-.37.17-.55.1-.3.21-.59.38-1.07Zm4.17-15.95c.04.16.08.31.12.47.47-.04,1.06.08,1.39-.16.53-.38.88-1.01,1.31-1.53l-.33-.32c-.17,1.52-1.51,1.25-2.49,1.54Z"/>
  <path class="cls-1" d="m246.76,105.87v.32c-1.02.46-1.95.88-3.09,1.4.08-.42.16-.83.3-1.56-.53.68-.9,1.15-1.27,1.62-.12-.28-.24-.55-.49-1.1-.59.89-1,1.55-1.47,2.17-.1.14-.44.16-.65.13-.48-.06-.95-.19-1.42-.29-.02.11-.04.22-.05.33-.17-.37-.35-.74-.52-1.11-.16.56.06,1.26-.91.97-.11-.03-.32.07-.41.18-.78.86-1.65.81-2.65.43-.31-.12-.78.2-1.27.11.14-.1.28-.21.43-.32-.03-.05-.06-.14-.09-.14-.33-.02-.66-.02-.99-.03.03.26.05.51.11,1.07-1.31-.56-2.54-1.09-3.85-1.66.3-.34.44-.5.51-.59-.31-.21-.74-.35-.78-.57-.05-.26.16-.71.39-.86.63-.39,1.32-.71,2.02-.99,1.09-.43,2.21-.8,3.32-1.21.43-.16.84-.38,1.36-.62,1.49,1.26.84-.98,1.47-.82.34.04.74.22,1.02.11,1.63-.62,3.23-1.31,4.84-1.97,1.31-.54,2.95-.32,3.92-1.68.06-.08.41.11.6.06.33-.1.7-.23.94-.47.44-.43.79-.94,1.08-1.3-.35-.83-.7-1.68-1.05-2.54.37-.81.64-1.54.29-2.63-.32-1.01-.39-2.11-.95-3.08-.39-.67-.7-1.38-1.02-2.09-.08-.19-.07-.43-.06-.65.02-.65.06-1.3.1-2.07.8-.12,1.75-.26,2.53-.38.83,1.13,1.55,2.1,2.44,3.31.1-.56.15-.81.23-1.21.94.72.96,2.36,2.46,1.96.49,2.62.96,5.08,1.39,7.41,1.1-.22,2.31-.47,3.53-.72,0,.03-.05-.14-.1-.27h3.14c.02-.06.09-.32.2-.74.37.16.68.29.99.43-.05.12-.1.24-.14.37.71-.15,1.51-.79,1.84-.02.6-.04,1.02-.05,1.44-.09.34-.03.68-.06,1.01-.11.88-.13,1.47.3,2.17.79.44.31,1.37,1.11,1.89,0,.69.13-.23,1.53,1.36.67-.06.2-.12.39-.18.59-.66.35-1.3.75-1.99,1.05-.97.42-1.06,1.37-.15,2.15-.45.61-1.04.87-1.8.99-.37.06-.66.61-.98.92.02-.12.05-.37.14-.97-.9,1.07-1.75,1.45-2.89,1.16-.97-.24-2.12-.02-2.46-1.41-.86,1.25-1.3,1.33-2.18.4-.14.28-.27.53-.39.78-.96-.21-.93-.16-1.68.29-.43.26-1.02.24-1.47.46-.74.36-1.33.94-1.19,1.83.11.7.44,1.37.66,2.02-.35-.09-.83-.22-1.32-.35.88,1.08.59,2.37.93,3.45.52,1.62.19,3.17.27,4.75.02.39-.08.79-.08,1.18,0,.29.09.57.19,1.13.04-.03-.18.16-.46.4.26.17.51.34.75.5-.11.01-.23.02-.34.04.08.71.37,1.47.19,2.1-.24.82-1,1.52-.02,2.22-.18.43-.34.79-.49,1.14.26.06.52.11.79.17,0,.06.02.12.03.18-.35.03-.7.06-.9.07.1,1.48.13,3.01.32,4.53.1.76.56,1.47.73,2.23.09.39,0,.87-.15,1.26-.49,1.3-.51,1.35.26,2.51-.3.02-.56.04-.78.06-.06,1.54-.13,3.11-.19,4.75-.11.07-.32.21-.24.16,0,1.06,0,1.86,0,2.67,0,.16.07.4,0,.46-1.09.8,0,.9.5,1.26-.27.37-.52.69-.83,1.1,1.24,1.75-.66,3.94.49,5.93-.1.03-.32.11-.22.07.06,1.02.22,1.89.14,2.74-.24,2.57-.61,5.13-.86,7.7-.3,3.15-.52,6.31-.82,9.47-.05.53.18,1.29-.88,1.34-.96.05-1.52-.18-1.73-1.14-.49-2.22-.98-4.43-1.48-6.65-.36-1.58-.79-3.14-1.09-4.73-.09-.48.13-1.02.24-1.73-.81-.67-.98-3.46.09-4.84-.45.17-.73.28-1.05.4.15-.9.29-1.74.46-2.71-.59-.64-.54-1.25.5-2.1h-1.6c.79-.75-.58-2.47,1.22-2.44-.32-.61-.66-1.28-1-1.94.41-.14.82-.27,1.21-.4-1-.76-1.14-1.3-.63-1.61-.13-.39-.33-.71-.34-1.03-.02-1.09.02-2.18.05-3.27,0-.25.13-.49.14-.74.03-.35-.02-.71.02-1.05.02-.24.14-.48.19-.72.08-.39.15-.79.22-1.19-.1-.05-.2-.11-.3-.16.31-.21.62-.42.76-.52-.11-2.01-.23-3.88-.31-5.75-.07-1.82-.09-3.64-.13-5.63.05-.02.35-.16.83-.38-.43-.34-.74-.6-1.07-.85.65-.98.55-2.09.16-3.23-.05-.13-.11-.38-.06-.41.98-.6.15-1.33.14-1.98-.01-.89-.11-1.77-.2-2.93.48.4.72.6.96.8.06-.03.12-.06.18-.1-.14-.39-.16-.92-.43-1.14-1.37-1.11-.47-2.41-.39-3.64.03-.46.14-.94.04-1.37-.04-.18-.52-.34-.82-.37-.38-.03-.77.08-1.31.15Z"/>
  <path class="cls-1" d="m235.84,32.25c.78.64,1.57,1.28,2.36,1.92.09.07.24.17.31.13,1.35-.58,1.6.38,1.82,1.47.41-.3.69-.51,1.02-.75-.13,1.26.5,1.92,1.5,1.86v2.19l.27.05c-.22.26-.45.53-.67.78.64,1.06,1.27,2.08,1.99,3.26,1.07-.68,1.96-1.47,2.99-1.82,1.07-.36,2.37-.06,3.26-1.23-.08.29-.15.57-.23.87,1.1-.22,2.17-1.19,3.32-.27.04.57.07,1.1.1,1.62.09,0,.17.02.26.03l.23-.82c.11.04.22.08.33.11-.18.48-.37.96-.6,1.58.14.13.44.4.86.79-.49-.03-.81-.05-1.14-.07-.03.08-.06.16-.1.24.48.41.96.81,1.63,1.38.07,1.44,0,1.52-1.47,1.33.13.28.25.52.36.76-2.63,1.13-2.93,1.11-3.81-.49-.07.64-.13,1.16-.21,1.97-.36-.7-.6-1.15-.83-1.6-.05,2.32-2.57,2.02-3.61,3.58-.18-.61-.33-1.1-.51-1.71-.25.47-.42.81-.6,1.14-.14.26-.29.52-.44.78-.2-.25-.4-.5-.7-.88-.42.73-.83,1.44-1.34,2.32-.26-.47-.46-.81-.66-1.17-1.07.23-1.3.89-.7,2.07-1.12-.15-1.99-.26-2.93-.38.17.22.41.51.77.97-.74.16-1.4.28-2.04.44-.33.08-.57.11-.88.5-.5.62-1.55.84-2.39,1.14-.85.3-1.97-.24-2.61.86-.04.07-1-.39-1.59-.63-.12.66-.31.67-1.32.43-1.43-.35-2.57-.97-3.74-1.72-.35-.23-.85-.23-1.24-.32.35-.78.53-1.54.98-2.08.67-.81,1.54-1.45,2.3-2.17.96-.91,1.87-1.89,2.87-2.76,1.2-1.04,1.94-2.44,2.92-3.65.77-.95,1.51-1.92,2.26-2.89.62-.81,1.23-1.63,1.88-2.49-1.99-1.51-3.77-2.86-5.59-4.24.02-.35.05-.81.07-1.27-.1,0-.2,0-.3,0,0,.2-.02.4-.03.6-.37-1.72.19-2.3,1.91-2.19.58.04,1.17-.06,1.76-.05.16,0,.38.14.46.28.41.79.94.61,1.52.2Z"/>
  <path class="cls-1" d="m84.69,45.47c.35-.08.69-.16,1.04-.24.6-.14,1.2-.28,2-.47,0,0,.02-.3.05-.59.07-.03.15-.06.22-.09.17.33.34.65.55,1.05.58.06,1.12,0,.61-.88.49-.17.99-.35,1.66-.58.05.07.29.42.54.77-.13-1.32.4-1.58,1.51-1.11.15.06.48,0,.58-.12.69-.91,1.5-.53,2.07-.31.96-.5,1.74-.92,2.6-1.36.53.64,1.02.55,1.74,0,.54-.42,1.39-.44,2.2-.67.02-.13.06-.39.1-.65.1-.02.2-.08.24-.05,1.15.88,2.3.29,3.46.04.32-.07.92-.07.97.06.53,1.35,1.59.81,2.51.79.15,0,.3,0,.56,0-.28.38-.5.69-.92,1.26.46-.13.59-.15.71-.2.24-.11.47-.23.7-.35-.1.27-.23.53-.31.8-.12.39-.21.79-.19,1.21-.56.49-1.9.16-1.94,1.62,0,.03-.11.06-.18.09-1.46.68-2.47,2.31-4.41,1.99-.36-.06-.78.36-1.19.39-.91.06-1.83.02-2.75.02,0,.11,0,.21.01.32-.27.02-.54.08-.79.05-.47-.06-.48.51-1.1.58-1.59.17-3.1,1-4.68,1.38-.98.24-1.87.67-2.84.89-1.07.24-2.14.5-3.2.76-.17.04-.39.09-.48.22-.64.88-1.29.7-1.95.12-.34.17-.69.34-1.14.57.01.67-.66,1.11-1.63.86-.19-.05-.42.07-.64.1-.41.05-.81.08-1.22.12-.33.03-.67.03-1,.08-.88.12-1.75.24-2.62.38-.19.03-.41.13-.54.26-.21.21-.37.48-.55.73-.09-.05-.18-.1-.27-.15.04-.32.08-.63.13-1.07-.39.09-.67.16-.99.23.18.36.33.67.42.83-.62-.06-1.2-.11-1.86-.17.2-.28.39-.55.57-.8-.71-.25-1.4-.49-2.1-.73q-.15.65,1.23,1.02l-.02.34c-.51-.08-1.07-.06-1.53-.27-.56-.25-1.03-.69-1.54-1.04-1.1-.75-2.21-1.5-3.32-2.25-.39-.26-.97-.48-.27-1.04.09-.07.19-.16.21-.25.14-.52.09-1.34.41-1.52.94-.54,2.03-1.11,3.06-1.12,1.05-.01,2.1.63,3.21,1,.18-.14.55-.65.82-.6.78.13,1.53.48,2.34.77.07-.37.15-.85.26-1.51.23.43.36.68.45.84.85-.22,1.62-.43,2.48-.66.09-.21.25-.57.42-.97,1.25,1.07,2.48.92,2.81-.04.48.2,1.16.69,1.37.54.47-.35.71-1.02,1.05-1.55.1.12.2.24.3.36Z"/>
</svg>